<svg xmlns="http://www.w3.org/2000/svg" viewBox="0 0 218.96 70.71"><defs><style>.cls-1{fill:#202020;}.cls-2{fill:#b3b2b2;}</style></defs><title>Asset 2</title><g id="Layer_2" data-name="Layer 2"><g id="Layer_1-2" data-name="Layer 1"><path class="cls-1" d="M54.89,16.34h4.52V53.77H54.89Z"/><path class="cls-1" d="M81.75,16.34h3.61l.53,4.44c2.48-3.54,6-5.12,11.37-5.12,9.49,0,14,5.35,14,16.49v5.73c0,11.14-4.6,16.56-13.94,16.56-5.12,0-8.35-1.43-11.07-4.82V70.71H81.75Zm25,16c0-8.74-3.32-13-10.17-13S86.26,23.8,86.26,32.3v5.5c0,8.44,3.47,12.8,10.32,12.8s10.17-4.21,10.17-12.87Z"/><path class="cls-1" d="M132,37.58c0,8.43,4.06,13,11.52,13,4.07,0,6.78-1.13,9-3.61l3.39,2.18c-2.79,3.69-6.7,5.27-12.65,5.27-10.54,0-15.74-5.79-15.74-17.69V33.43c0-12,4.82-17.77,14.76-17.77,10.24,0,15,5.58,15,17.77v2.19H132Zm20.86-5.43v-.52a15,15,0,0,0-2.26-8.51c-1.81-2.56-4.22-3.69-8.21-3.69-6.7,0-10.39,4.29-10.39,12.27v.45Z"/><rect class="cls-1" x="19.64" y="11.51" width="4.67" height="42.25"/><rect class="cls-2" width="43.65" height="3.99"/><rect class="cls-2" x="177.65" y="49.91" width="41.3" height="3.99"/></g></g></svg>