<svg width="20" height="20" viewBox="0 0 20 20" fill="none" xmlns="http://www.w3.org/2000/svg">
<path fill-rule="evenodd" clip-rule="evenodd" d="M16.2518 9.99999C16.2518 10.2833 16.2268 10.55 16.1935 10.8167L17.9518 12.1917C18.1102 12.3167 18.1518 12.5417 18.0518 12.725L16.3852 15.6083C16.3102 15.7417 16.1685 15.8167 16.0268 15.8167C15.9768 15.8167 15.9268 15.8083 15.8768 15.7917L13.8018 14.9583C13.3685 15.2833 12.9018 15.5667 12.3935 15.775L12.0768 17.9833C12.0518 18.1833 11.8768 18.3333 11.6685 18.3333H8.33515C8.12682 18.3333 7.95182 18.1833 7.92682 17.9833L7.61015 15.775C7.10182 15.5667 6.63515 15.2917 6.20182 14.9583L4.12682 15.7917C4.08515 15.8083 4.03515 15.8167 3.98515 15.8167C3.83515 15.8167 3.69349 15.7417 3.61849 15.6083L1.95182 12.725C1.85182 12.5417 1.89349 12.3167 2.05182 12.1917L3.81015 10.8167C3.77682 10.55 3.75182 10.275 3.75182 9.99999C3.75182 9.72499 3.77682 9.44999 3.81015 9.18332L2.05182 7.80832C1.89349 7.68332 1.84349 7.45832 1.95182 7.27499L3.61849 4.39166C3.69349 4.25832 3.83515 4.18332 3.97682 4.18332C4.02682 4.18332 4.07682 4.19166 4.12682 4.20832L6.20182 5.04166C6.63515 4.71666 7.10182 4.43332 7.61015 4.22499L7.92682 2.01666C7.95182 1.81666 8.12682 1.66666 8.33515 1.66666H11.6685C11.8768 1.66666 12.0518 1.81666 12.0768 2.01666L12.3935 4.22499C12.9018 4.43332 13.3685 4.70832 13.8018 5.04166L15.8768 4.20832C15.9185 4.19166 15.9685 4.18332 16.0185 4.18332C16.1685 4.18332 16.3102 4.25832 16.3852 4.39166L18.0518 7.27499C18.1518 7.45832 18.1102 7.68332 17.9518 7.80832L16.1935 9.18332C16.2268 9.44999 16.2518 9.71666 16.2518 9.99999ZM14.5852 9.99999C14.5852 9.82499 14.5768 9.64999 14.5435 9.39166L14.4268 8.44999L15.1685 7.86666L16.0602 7.15832L15.4768 6.14999L14.4185 6.57499L13.5352 6.93332L12.7768 6.34999C12.4435 6.09999 12.1102 5.90832 11.7518 5.75832L10.8685 5.39999L10.7352 4.45832L10.5768 3.33332H9.41848L9.25182 4.45832L9.11848 5.39999L8.23515 5.75832C7.89348 5.89999 7.55182 6.09999 7.19348 6.36666L6.44348 6.93332L5.57682 6.58332L4.51848 6.15832L3.93515 7.16666L4.83515 7.86666L5.57682 8.44999L5.46015 9.39166C5.43515 9.64166 5.41848 9.83332 5.41848 9.99999C5.41848 10.1667 5.43515 10.3583 5.46015 10.6167L5.57682 11.5583L4.83515 12.1417L3.93515 12.8417L4.51848 13.85L5.57682 13.425L6.46015 13.0667L7.21848 13.65C7.55182 13.9 7.88515 14.0917 8.24348 14.2417L9.12682 14.6L9.26015 15.5417L9.41848 16.6667H10.5852L10.7518 15.5417L10.8852 14.6L11.7685 14.2417C12.1102 14.1 12.4518 13.9 12.8102 13.6333L13.5602 13.0667L14.4268 13.4167L15.4852 13.8417L16.0685 12.8333L15.1685 12.1333L14.4268 11.55L14.5435 10.6083C14.5685 10.3583 14.5852 10.175 14.5852 9.99999ZM10.0018 6.66666C8.16015 6.66666 6.66848 8.15832 6.66848 9.99999C6.66848 11.8417 8.16015 13.3333 10.0018 13.3333C11.8435 13.3333 13.3351 11.8417 13.3351 9.99999C13.3351 8.15832 11.8435 6.66666 10.0018 6.66666ZM8.33515 9.99999C8.33515 10.9167 9.08515 11.6667 10.0018 11.6667C10.9185 11.6667 11.6685 10.9167 11.6685 9.99999C11.6685 9.08332 10.9185 8.33332 10.0018 8.33332C9.08515 8.33332 8.33515 9.08332 8.33515 9.99999Z" fill="white" fill-opacity="0.51"/>
</svg>
